<svg width="49" height="67" viewBox="0 0 49 67" fill="none" xmlns="http://www.w3.org/2000/svg">
<g id="Group">
<path id="Vector" fill-rule="evenodd" clip-rule="evenodd" d="M24.4974 0.0849609V19.8558C24.4974 21.0658 24.9781 22.2263 25.8337 23.082C26.6894 23.9376 27.8498 24.4183 29.0599 24.4183H48.8307V54.835C48.8307 56.4484 48.1898 57.9957 47.049 59.1365C45.9081 60.2774 44.3608 60.9183 42.7474 60.9183H6.2474C4.634 60.9183 3.08668 60.2774 1.94583 59.1365C0.804983 57.9957 0.164063 56.4484 0.164062 54.835V6.16829C0.164062 4.55489 0.804983 3.00757 1.94583 1.86673C3.08668 0.725881 4.634 0.0849609 6.2474 0.0849609H24.4974ZM21.4892 30.0393C20.7611 34.6719 18.3384 38.869 14.6911 41.8166C11.9931 43.9945 14.4599 48.268 17.6962 47.024C22.0726 45.3384 26.9191 45.3384 31.2955 47.024C34.5319 48.271 36.9986 43.9975 34.3007 41.8166C30.6533 38.869 28.2307 34.6719 27.5026 30.0393C26.9642 26.6144 22.0276 26.6113 21.4892 30.0393ZM24.4974 37.5066L26.949 41.7467H22.0519L24.4974 37.5066ZM30.5807 0.215753C31.7332 0.460167 32.7898 1.03394 33.6224 1.86738L47.0483 15.2933C47.8818 16.1259 48.4555 17.1825 48.6999 18.335H30.5807V0.215753Z" fill="#333333"/>
</g>
</svg>
