<svg width="40" height="40" viewBox="0 0 40 40" fill="none" xmlns="http://www.w3.org/2000/svg">
<g id="lets-icons:back">
<path id="Vector" d="M6.66526 16.6669L5.48693 17.8453L4.30859 16.6669L5.48693 15.4886L6.66526 16.6669ZM34.9986 30.0003C34.9986 30.4423 34.823 30.8662 34.5104 31.1788C34.1979 31.4913 33.774 31.6669 33.3319 31.6669C32.8899 31.6669 32.466 31.4913 32.1534 31.1788C31.8409 30.8662 31.6653 30.4423 31.6653 30.0003H34.9986ZM13.8203 26.1786L5.48693 17.8453L7.84359 15.4886L16.1769 23.8219L13.8203 26.1786ZM5.48693 15.4886L13.8203 7.15527L16.1769 9.51194L7.84359 17.8453L5.48693 15.4886ZM6.66526 15.0003H23.3319V18.3336H6.66526V15.0003ZM34.9986 26.6669V30.0003H31.6653V26.6669H34.9986ZM23.3319 15.0003C26.4261 15.0003 29.3936 16.2294 31.5815 18.4174C33.7694 20.6053 34.9986 23.5727 34.9986 26.6669H31.6653C31.6653 24.4568 30.7873 22.3372 29.2245 20.7744C27.6617 19.2116 25.5421 18.3336 23.3319 18.3336V15.0003Z" fill="black"/>
</g>
</svg>
