<svg width="42" height="44" viewBox="0 0 42 44" fill="none" xmlns="http://www.w3.org/2000/svg">
<g id="Group">
<path id="Vector" fill-rule="evenodd" clip-rule="evenodd" d="M13.7082 0.25C15.0895 0.25 16.4143 0.798734 17.391 1.77549C18.3678 2.75224 18.9165 4.077 18.9165 5.45833V8.58333H23.0832V5.45833C23.083 4.136 23.5857 2.8631 24.4895 1.89782C25.3933 0.932543 26.6304 0.347162 27.9498 0.260417L28.4144 0.25C29.7257 0.250413 31.0037 0.663263 32.0674 1.43011C33.1311 2.19695 33.9267 3.27894 34.3415 4.52292L41.0123 24.5333C41.5842 25.8084 41.8637 27.1952 41.8305 28.5922C41.7973 29.9892 41.4523 31.3611 40.8206 32.6076C40.1889 33.8541 39.2865 34.9436 38.1794 35.7964C37.0724 36.6492 35.7888 37.2437 34.4224 37.5365C33.056 37.8293 31.6414 37.8129 30.2821 37.4886C28.9229 37.1642 27.6533 36.5401 26.5664 35.6619C25.4794 34.7836 24.6025 33.6735 23.9998 32.4128C23.3972 31.152 23.084 29.7724 23.0832 28.375V12.75H18.9165V28.375C18.9157 29.7724 18.6025 31.152 17.9998 32.4128C17.3972 33.6735 16.5203 34.7836 15.4333 35.6619C14.3463 36.5401 13.0768 37.1642 11.7175 37.4886C10.3583 37.8129 8.94372 37.8293 7.57731 37.5365C6.21091 37.2437 4.92725 36.6492 3.82022 35.7964C2.7132 34.9436 1.81082 33.8541 1.17911 32.6076C0.547397 31.3611 0.202328 29.9892 0.169147 28.5922C0.135967 27.1952 0.415513 25.8084 0.987336 24.5333L7.65609 4.52292C8.05056 3.34051 8.78959 2.30306 9.7782 1.54387C10.7668 0.78469 11.9598 0.338453 13.204 0.2625L13.7082 0.25ZM9.5415 23.1667C6.71859 23.1667 4.33317 25.5604 4.33317 28.375C4.33317 29.4051 4.63863 30.4121 5.21093 31.2686C5.78323 32.1251 6.59666 32.7927 7.54836 33.1869C8.50006 33.5811 9.54728 33.6842 10.5576 33.4833C11.5679 33.2823 12.496 32.7862 13.2243 32.0578C13.9527 31.3295 14.4488 30.4014 14.6498 29.3911C14.8507 28.3808 14.7476 27.3336 14.3534 26.3819C13.9592 25.4302 13.2916 24.6167 12.4351 24.0444C11.5786 23.4721 10.5716 23.1667 9.5415 23.1667ZM32.4582 23.1667C31.4281 23.1667 30.4211 23.4721 29.5646 24.0444C28.7081 24.6167 28.0405 25.4302 27.6463 26.3819C27.2521 27.3336 27.1489 28.3808 27.3499 29.3911C27.5509 30.4014 28.0469 31.3295 28.7753 32.0578C29.5037 32.7862 30.4318 33.2823 31.4421 33.4833C32.4524 33.6842 33.4996 33.5811 34.4513 33.1869C35.403 32.7927 36.2164 32.1251 36.7887 31.2686C37.361 30.4121 37.6665 29.4051 37.6665 28.375C37.6665 25.5604 35.2811 23.1667 32.4582 23.1667Z" fill="#0C8F00"/>
</g>
</svg>
