<svg width="50" height="50" viewBox="0 0 50 50" fill="none" xmlns="http://www.w3.org/2000/svg">
<g id="mdi:shoe-cleat">
<path id="Vector" d="M44.1723 14.7424H42.6923L42.5865 14.6789C38.1253 14.4041 34.4041 12.9875 32.6069 11L29.372 12.628C29.2663 12.8395 29.1394 13.0298 29.0337 13.22C30.5349 14.5098 31.4863 16.1167 31.4863 17.9139C31.4863 18.6116 31.296 19.267 31.0423 19.9225L27.0885 15.9687C26.6233 16.4973 26.137 17.0047 25.6085 17.4699L29.9006 21.7619C29.4565 22.2905 28.9491 22.7557 28.3148 23.1997L23.9381 18.7807C23.325 19.2036 22.7118 19.563 22.0775 19.9225L26.3696 24.2569C25.6719 24.5317 24.9107 24.7643 24.0861 24.9334L20.0478 20.8951C19.3289 21.1911 18.61 21.4659 17.87 21.6985L21.4644 25.314H20.9146C17.7431 25.314 14.9945 24.3414 13.0493 22.8191C11.3156 23.094 9.66641 23.1997 8.22866 23.1997C4 23.1997 4 29.5427 4 29.5427C4 31.8896 5.88175 33.7713 8.22866 33.7713V35.8857C8.22866 37.0486 9.18011 38 10.343 38C11.5059 38 12.4573 37.0486 12.4573 35.8857V33.7713H14.5717V35.8857C14.5717 37.0486 15.5231 38 16.686 38C17.8489 38 18.8003 37.0486 18.8003 35.8857V33.7713H20.9146V35.8857C20.9146 37.0486 21.8661 38 23.029 38C24.1919 38 25.1433 37.0486 25.1433 35.8857V33.7713H31.4863V35.8857C31.4863 37.0486 32.4377 38 33.6006 38C34.7635 38 35.715 37.0486 35.715 35.8857V33.7713H37.8293V35.8857C37.8293 37.0486 38.7807 38 39.9436 38C41.1065 38 42.058 37.0486 42.058 35.8857V33.7713H44.1723C44.1723 33.7713 46.2866 33.7713 46.2866 24.2569C46.2866 16.8567 44.1723 14.7424 44.1723 14.7424Z" fill="#0C8F00"/>
</g>
</svg>
